<?xml version="1.0" encoding="UTF-8"?>
<svg width="1024px" height="1024px" viewBox="0 0 1024 1024" version="1.1" xmlns="http://www.w3.org/2000/svg" xmlns:xlink="http://www.w3.org/1999/xlink">
    <title>mac app icon@1x</title>
    <defs>
        <path d="M824,256.627066 C824,246.845101 824,237.062137 823.943901,227.279173 C823.894902,219.038203 823.799902,210.799233 823.575904,202.562263 C823.091908,184.609328 822.032915,166.502394 818.839939,148.749458 C815.601963,130.740524 810.314002,113.979585 801.981064,97.6166446 C793.789124,81.5337032 783.088204,66.8167567 770.320298,54.0578032 C757.555393,41.2988496 742.834502,30.6048886 726.745621,22.4179184 C710.365742,14.0829487 693.586866,8.79696797 675.558,5.55997976 C657.803131,2.37199136 639.691265,1.31499521 621.738398,0.829996978 C613.495459,0.60699779 605.25252,0.512998132 597.007581,0.461998318 C587.219653,0.401998536 577.431726,0.406998518 567.643798,0.406998518 L453.99664,0 L368.997269,0 L257.361095,0.406998518 C247.554168,0.406998518 237.74724,0.401998536 227.940313,0.461998318 C219.678374,0.512998132 211.420435,0.60699779 203.161496,0.829996978 C185.166629,1.31499521 167.013764,2.37299136 149.216896,5.56497974 C131.164029,8.80096796 114.360154,14.0849487 97.9582749,22.4139184 C81.8353943,30.6018886 67.0825035,41.2968496 54.2905981,54.0578032 C41.5006928,66.8157567 30.7797722,81.5297032 22.5728329,97.6096446 C14.2168948,113.980585 8.91893398,130.751524 5.67295801,148.770458 C2.47698167,166.516394 1.4179895,184.617328 0.930993109,202.562263 C0.708994752,210.800233 0.612995463,219.039203 0.562995833,227.279173 C0.502996277,237.063137 0,249.216093 0,258.999057 L0,369.088656 L0,454.998343 L0.50799624,567.426934 C0.50799624,577.222898 0.503996269,587.018863 0.562995833,596.814827 C0.612995463,605.066797 0.708994752,613.316767 0.931993101,621.565737 C1.4179895,639.541672 2.47898165,657.674606 5.67795797,675.451541 C8.92293395,693.484475 14.2198947,710.269414 22.5688329,726.653354 C30.7767722,742.759296 41.4996928,757.495242 54.2905981,770.272196 C67.0815035,783.049149 81.8303943,793.75711 97.950275,801.95608 C114.362153,810.30205 131.174029,815.595031 149.237895,818.836019 C167.026764,822.029007 185.173629,823.088003 203.161496,823.573002 C211.420435,823.796001 219.679374,823.891 227.941313,823.941 C237.74824,824 247.554168,824 257.361095,824 L370.006261,824 L455.216631,824 L567.643798,824 C577.431726,824 587.219653,824 597.007581,823.941 C605.25252,823.891 613.495459,823.796001 621.738398,823.573002 C639.698265,823.087003 657.816131,822.027007 675.578999,818.832019 C693.596866,815.591031 710.367742,810.30005 726.738621,801.95908 C742.830502,793.76111 757.554393,783.051149 770.320298,770.272196 C783.086204,757.497242 793.786124,742.763296 801.978064,726.660354 C810.316002,710.268414 815.603963,693.475475 818.843939,675.430541 C822.033915,657.660606 823.091908,639.534672 823.576904,621.565737 C823.799902,613.315767 823.894902,605.065797 823.943901,596.814827 C824,587.018863 824,577.222898 824,567.426934 C824,567.426934 824,456.983336 824,454.998343 L824,368.998657 C824,367.532662 824,256.627066 824,256.627066" id="path-1"></path>
        <filter x="-2.4%" y="-1.2%" width="104.9%" height="104.9%" filterUnits="objectBoundingBox" id="filter-3">
            <feOffset dx="0" dy="10" in="SourceAlpha" result="shadowOffsetOuter1"></feOffset>
            <feGaussianBlur stdDeviation="5" in="shadowOffsetOuter1" result="shadowBlurOuter1"></feGaussianBlur>
            <feColorMatrix values="0 0 0 0 0   0 0 0 0 0   0 0 0 0 0  0 0 0 0.3 0" type="matrix" in="shadowBlurOuter1"></feColorMatrix>
        </filter>
        <linearGradient x1="20.8407792%" y1="79.381711%" x2="80.4817661%" y2="20.5806414%" id="linearGradient-4">
            <stop stop-color="#CAB4CD" offset="0%"></stop>
            <stop stop-color="#4E90D4" offset="100%"></stop>
        </linearGradient>
    </defs>
    <g id="mac-app-icon" stroke="none" stroke-width="1" fill="none" fill-rule="evenodd">
        <g id="Artwork" transform="translate(100, 100)">
            <mask id="mask-2" fill="white">
                <use xlink:href="#path-1"></use>
            </mask>
            <g id="Mask">
                <use fill="black" fill-opacity="1" filter="url(#filter-3)" xlink:href="#path-1"></use>
                <use fill="#FFFFFF" fill-rule="evenodd" xlink:href="#path-1"></use>
            </g>
            <g id="Icon-Center-Image-Artwork" mask="url(#mask-2)"></g>
            <rect id="path-2" fill="url(#linearGradient-4)" mask="url(#mask-2)" x="-100" y="-100" width="1024" height="1024"></rect>
        </g>
        <g id="icons8-sheets" transform="translate(152, 250)" fill-rule="nonzero">
            <path d="M720,384.545455 C720,370.996364 709.003636,360 695.454545,360 C690.692727,360 686.290909,361.407273 682.543636,363.747273 L32.6127273,361.456364 C30.06,360.572727 27.3927273,360 24.5454545,360 C21.78,360 19.1454545,360.556364 16.6745455,361.407273 L16.3636364,361.407273 L16.3636364,361.505455 C6.85636364,364.892727 0,373.876364 0,384.545455 C0,395.214545 6.85636364,404.214545 16.3636364,407.585455 L16.3636364,408.158182 L360,523.636364 L703.636364,407.667273 L703.636364,407.585455 C713.143636,404.214545 720,395.214545 720,384.545455 Z" id="Path" fill="#103262"></path>
            <path d="M720,286.363636 C720,275.694545 713.143636,266.694545 703.636364,263.323636 L703.636364,263.241818 L703.374545,263.241818 C700.887273,262.390909 698.252727,261.818182 695.454545,261.818182 C692.672727,261.818182 690.021818,262.390909 687.534545,263.241818 L32.4163636,263.225455 C29.9290909,262.374545 27.3109091,261.818182 24.5454545,261.818182 C21.78,261.818182 19.1618182,262.374545 16.6745455,263.225455 L16.3636364,263.225455 L16.3636364,263.323636 C6.85636364,266.710909 0,275.694545 0,286.363636 C0,297.032727 6.85636364,306.032727 16.3636364,309.403636 L16.3636364,309.485455 L360,425.454545 L703.636364,309.485455 L703.636364,309.403636 C713.143636,306.032727 720,297.032727 720,286.363636 Z" id="Path" fill="#0078D4"></path>
            <path d="M720,188.181818 C720,177.512727 713.143636,168.512727 703.636364,165.141818 L703.636364,165.06 L703.374545,165.06 C700.887273,164.209091 698.252727,163.636364 695.454545,163.636364 C692.656364,163.636364 690.021818,164.209091 687.534545,165.06 L32.4654545,165.06 C29.9781818,164.209091 27.3436364,163.636364 24.5454545,163.636364 C21.7472727,163.636364 19.1127273,164.209091 16.6254545,165.06 L16.3636364,165.06 L16.3636364,165.141818 C6.85636364,168.529091 0,177.512727 0,188.181818 C0,198.850909 6.85636364,207.850909 16.3636364,211.221818 L16.3636364,211.32 L360,327.272727 L703.636364,211.32 L703.636364,211.221818 C713.143636,207.850909 720,198.850909 720,188.181818 Z" id="Path" fill="#35C1F1"></path>
            <path d="M720,237.272727 C720,215.034545 699.774545,213.201818 698.514545,213.038182 L360,327.272727 L21.4690909,213.038182 C9.37636364,214.56 0,224.770909 0,237.272727 C0,247.958182 6.87272727,256.958182 16.4127273,260.329091 L16.4127273,260.410909 L360,376.363636 L703.636364,260.394545 L703.636364,260.312727 C713.143636,256.925455 720,247.941818 720,237.272727 Z" id="Path" fill="#1B9DE2"></path>
            <circle id="Oval" fill="#50E6FF" cx="695.454545" cy="139.090909" r="24.5454545"></circle>
            <path d="M360,0 L16.3636364,115.952727 L16.3636364,116.050909 C6.85636364,119.438182 0,128.421818 0,139.090909 C0,149.76 6.85636364,158.76 16.3636364,162.130909 L16.3636364,162.229091 L360,278.181818 L703.636364,162.229091 L703.636364,115.969091 L360,0 Z" id="Path" fill="#50E6FF"></path>
            <path d="M720,335.454545 C720,314.329091 699.790909,311.367273 698.514545,311.22 L360,425.454545 L41.9072727,318.092727 L21.4854545,311.203636 C9.39272727,312.725455 0,322.936364 0,335.454545 C0,346.123636 6.85636364,355.107273 16.3636364,358.494545 L16.3636364,358.576364 L360,474.545455 L703.636364,358.576364 L703.636364,358.494545 C713.143636,355.107273 720,346.123636 720,335.454545 Z" id="Path" fill="#0553A4"></path>
        </g>
    </g>
</svg>